<svg xmlns="http://www.w3.org/2000/svg" width="41" height="21" viewBox="0 0 41 21">
<path fill-rule="evenodd" d="M4.51,-2.84217094e-14 L7.51348837,5.98642534 C8.03790698,4.87466063 8.76255814,3.85791855 9.63976744,3.00271493 C10.4216279,2.24253394 11.317907,1.59638009 12.3095349,1.10226244 L12.3095349,1.10226244 L14.1116279,4.68461538 C13.0913953,5.19773756 12.2237209,5.96742081 11.6039535,6.9081448 L11.6039535,6.9081448 L11.4508181,7.14830507 C10.8596119,8.12212911 10.5265116,9.25227985 10.5265116,10.4714932 C10.5265116,11.4027149 10.7267442,12.2864253 11.0795349,13.0846154 C11.0795349,13.0941176 11.0890698,13.1036199 11.0890698,13.1131222 L11.0890698,13.1131222 L11.3083721,13.5597285 C11.317907,13.5692308 11.317907,13.578733 11.3274419,13.5882353 C12.3667442,15.4791855 14.3404651,16.7904977 16.6288372,16.9235294 L16.6288372,16.9235294 L17.0102326,16.9425339 L23.8753488,16.9425339 L24.3806977,17.9402715 L25.8872093,20.9524887 L17.0102326,20.9524887 C16.2855814,20.9524887 15.5895349,20.8764706 14.9125581,20.7434389 L14.9125581,20.7434389 L14.5911333,20.6739095 C11.5017713,19.9545505 8.93482171,17.8728054 7.57069767,15.0895928 C7.55162791,15.061086 7.53255814,15.0325792 7.51348837,14.9945701 L7.51348837,14.9945701 L7.50395349,14.9660633 L1.43529633e-12,-2.84217094e-14 L4.51,-2.84217094e-14 Z M17.0102326,-2.84217094e-14 C17.7253488,-2.84217094e-14 18.4309302,0.0760180995 19.107907,0.209049774 C22.3116279,0.85520362 24.9813953,2.95520362 26.4116279,5.78687783 C26.4497674,5.85339367 26.4783721,5.92941176 26.5165116,5.9959276 L26.5165116,5.9959276 L32.0086047,16.9425339 L32.0753488,17.0850679 L34.0204651,20.9524887 L29.52,20.9524887 L27.5081395,16.9520362 L26.5165116,14.9660633 L22.8932558,7.74434389 L22.7788372,7.52579186 C22.7597674,7.47828054 22.7406977,7.44027149 22.712093,7.39276018 C21.6727907,5.48280543 19.6895349,4.15248869 17.3916279,4.01945701 L17.3916279,4.01945701 L15.4274419,0.114027149 C15.9423256,0.0380090498 16.4762791,-2.84217094e-14 17.0102326,-2.84217094e-14 Z M38.8260465,16.9425339 C39.9416279,16.9425339 40.837907,17.8357466 40.837907,18.9475113 C40.837907,20.059276 39.9416279,20.9524887 38.8260465,20.9524887 C37.7104651,20.9524887 36.814186,20.059276 36.814186,18.9475113 C36.814186,17.8357466 37.7104651,16.9425339 38.8260465,16.9425339 Z"></path>
<style>
        path { fill: #000; }
        @media (prefers-color-scheme: dark) {
            path { fill: #FFF; }
        }
    </style>
</svg>