<?xml version="1.0" encoding="UTF-8"?>
<svg width="16" height="16" viewBox="0 0 16 16" xmlns="http://www.w3.org/2000/svg">
    <path fill-rule="evenodd" stroke="none" d="M 1.766986 4 L 2.943731 6.345439 C 3.149194 5.909857 3.433108 5.511504 3.776792 5.176442 C 4.083119 4.878609 4.434275 4.62545 4.822788 4.431859 L 4.822788 4.431859 L 5.528835 5.835399 C 5.129115 6.036436 4.789166 6.337993 4.546346 6.706562 L 4.546346 6.706562 L 4.486349 6.800654 C 4.254718 7.182193 4.124212 7.624977 4.124212 8.102655 C 4.124212 8.467503 4.202662 8.813734 4.340882 9.126459 C 4.340882 9.130182 4.344618 9.133904 4.344618 9.137628 L 4.344618 9.137628 L 4.43054 9.312605 C 4.434275 9.316328 4.434275 9.320051 4.438011 9.323773 C 4.845202 10.064634 5.618492 10.578397 6.51506 10.630518 L 6.51506 10.630518 L 6.664488 10.637964 L 9.354192 10.637964 L 9.552183 11.02887 L 10.142424 12.209035 L 6.664488 12.209035 C 6.380575 12.209035 6.107868 12.179253 5.842634 12.127131 L 5.842634 12.127131 L 5.716702 12.099891 C 4.506312 11.81805 3.5006 11.002438 2.966145 9.911995 C 2.958674 9.900826 2.951202 9.889658 2.943731 9.874765 L 2.943731 9.874765 L 2.939995 9.863597 L 0 4 L 1.766986 4 Z M 6.664488 4 C 6.944665 4 7.221107 4.029783 7.486341 4.081904 C 8.741537 4.335063 9.787533 5.157827 10.347888 6.267258 C 10.36283 6.293318 10.374038 6.323101 10.38898 6.349162 L 10.38898 6.349162 L 12.540743 10.637964 L 12.566893 10.693808 L 13.328976 12.209035 L 11.565725 12.209035 L 10.777493 10.641686 L 10.38898 9.863597 L 8.969414 7.034179 L 8.924585 6.948551 C 8.917114 6.929937 8.909643 6.915045 8.898436 6.896431 C 8.491244 6.148124 7.714219 5.626915 6.813916 5.574795 L 6.813916 5.574795 L 6.044362 4.044675 C 6.246089 4.014892 6.455288 4 6.664488 4 Z M 15.211767 10.637964 C 15.648845 10.637964 16 10.987919 16 11.4235 C 16 11.859081 15.648845 12.209035 15.211767 12.209035 C 14.774691 12.209035 14.423535 11.859081 14.423535 11.4235 C 14.423535 10.987919 14.774691 10.637964 15.211767 10.637964 Z"/>
    <style>
        path { fill: #000; }
        @media (prefers-color-scheme: dark) {
            path { fill: #FFF; }
        }
    </style>
</svg>