<svg width="560" height="118" viewBox="0 0 560 118" fill="none" xmlns="http://www.w3.org/2000/svg">
<path d="M45 92.44C38.6 92.44 32.68 91.28 27.24 88.96C21.8 86.64 17.04 83.4 12.96 79.24C8.88 75.08 5.68 70.2 3.36 64.6C1.12 59 8.9407e-08 52.88 8.9407e-08 46.24C8.9407e-08 39.6 1.08 33.48 3.24 27.88C5.48 22.2 8.6 17.32 12.6 13.24C16.68 9.08 21.44 5.87999 26.88 3.63999C32.32 1.32 38.24 0.159997 44.64 0.159997C51.04 0.159997 56.76 1.24 61.8 3.4C66.92 5.56 71.24 8.44 74.76 12.04C78.28 15.56 80.8 19.44 82.32 23.68L67.8 30.64C66.12 26 63.28 22.24 59.28 19.36C55.28 16.48 50.4 15.04 44.64 15.04C39.04 15.04 34.08 16.36 29.76 19C25.52 21.64 22.2 25.28 19.8 29.92C17.48 34.56 16.32 40 16.32 46.24C16.32 52.48 17.52 57.96 19.92 62.68C22.4 67.32 25.8 70.96 30.12 73.6C34.44 76.24 39.4 77.56 45 77.56C49.56 77.56 53.76 76.68 57.6 74.92C61.44 73.08 64.52 70.52 66.84 67.24C69.16 63.88 70.32 59.92 70.32 55.36V48.52L77.76 55H44.64V41.2H86.64V50.2C86.64 57.08 85.48 63.16 83.16 68.44C80.84 73.72 77.68 78.16 73.68 81.76C69.76 85.28 65.32 87.96 60.36 89.8C55.4 91.56 50.28 92.44 45 92.44ZM93.5541 91V1.59999H109.874V76.6H148.154V91H93.5541ZM151.39 91V25.72H167.11V91H151.39ZM151.39 18.4V1.59999H167.11V18.4H151.39ZM207.305 117.4C202.425 117.4 197.905 116.6 193.745 115C189.585 113.4 185.985 111.16 182.945 108.28C179.985 105.48 177.825 102.16 176.465 98.32L191.105 92.8C192.065 95.84 193.945 98.28 196.745 100.12C199.625 102.04 203.145 103 207.305 103C210.505 103 213.305 102.4 215.705 101.2C218.185 100 220.105 98.24 221.465 95.92C222.825 93.68 223.505 90.96 223.505 87.76V72.88L226.505 76.48C224.265 80.4 221.265 83.36 217.505 85.36C213.745 87.36 209.465 88.36 204.665 88.36C198.585 88.36 193.145 86.96 188.345 84.16C183.545 81.36 179.785 77.52 177.065 72.64C174.345 67.76 172.985 62.28 172.985 56.2C172.985 50.04 174.345 44.56 177.065 39.76C179.785 34.96 183.505 31.2 188.225 28.48C192.945 25.68 198.305 24.28 204.305 24.28C209.185 24.28 213.465 25.32 217.145 27.4C220.905 29.4 224.025 32.32 226.505 36.16L224.345 40.12V25.72H239.225V87.76C239.225 93.44 237.825 98.52 235.025 103C232.305 107.48 228.545 111 223.745 113.56C219.025 116.12 213.545 117.4 207.305 117.4ZM206.585 73.84C209.945 73.84 212.865 73.12 215.345 71.68C217.905 70.16 219.905 68.08 221.345 65.44C222.785 62.8 223.505 59.76 223.505 56.32C223.505 52.96 222.745 49.96 221.225 47.32C219.785 44.6 217.785 42.48 215.225 40.96C212.745 39.44 209.865 38.68 206.585 38.68C203.305 38.68 200.345 39.44 197.705 40.96C195.065 42.48 192.985 44.6 191.465 47.32C190.025 49.96 189.305 52.96 189.305 56.32C189.305 59.68 190.025 62.68 191.465 65.32C192.985 67.96 195.025 70.04 197.585 71.56C200.225 73.08 203.225 73.84 206.585 73.84ZM247.906 91V0.159997H263.626V38.56L261.466 36.28C262.986 32.36 265.466 29.4 268.906 27.4C272.426 25.32 276.506 24.28 281.146 24.28C285.946 24.28 290.186 25.32 293.866 27.4C297.626 29.48 300.546 32.4 302.626 36.16C304.706 39.84 305.746 44.12 305.746 49V91H290.026V52.72C290.026 49.84 289.466 47.36 288.346 45.28C287.226 43.2 285.666 41.6 283.666 40.48C281.746 39.28 279.466 38.68 276.826 38.68C274.266 38.68 271.986 39.28 269.986 40.48C267.986 41.6 266.426 43.2 265.306 45.28C264.186 47.36 263.626 49.84 263.626 52.72V91H247.906ZM342.799 91.72C335.439 91.72 329.719 89.72 325.639 85.72C321.639 81.64 319.639 75.92 319.639 68.56V39.76H308.359V25.72H309.559C312.759 25.72 315.239 24.88 316.999 23.2C318.759 21.52 319.639 19.08 319.639 15.88V10.84H335.359V25.72H350.359V39.76H335.359V67.72C335.359 69.88 335.719 71.72 336.439 73.24C337.239 74.76 338.439 75.92 340.039 76.72C341.719 77.52 343.839 77.92 346.399 77.92C346.959 77.92 347.599 77.88 348.319 77.8C349.119 77.72 349.879 77.64 350.599 77.56V91C349.479 91.16 348.199 91.32 346.759 91.48C345.319 91.64 343.999 91.72 342.799 91.72ZM392.249 92.44C387.529 92.44 383.169 91.52 379.169 89.68C375.249 87.76 372.129 85.04 369.809 81.52L371.369 78.4V91H356.609V0.159997H372.329V38.68L369.929 35.44C372.169 31.92 375.209 29.2 379.049 27.28C382.889 25.28 387.329 24.28 392.369 24.28C398.529 24.28 404.089 25.8 409.049 28.84C414.009 31.88 417.929 35.96 420.809 41.08C423.769 46.2 425.249 51.96 425.249 58.36C425.249 64.68 423.809 70.44 420.929 75.64C418.049 80.84 414.129 84.96 409.169 88C404.209 90.96 398.569 92.44 392.249 92.44ZM390.449 78.04C394.049 78.04 397.249 77.2 400.049 75.52C402.849 73.84 405.009 71.52 406.529 68.56C408.129 65.6 408.929 62.2 408.929 58.36C408.929 54.52 408.129 51.16 406.529 48.28C405.009 45.32 402.849 43 400.049 41.32C397.249 39.56 394.049 38.68 390.449 38.68C387.009 38.68 383.889 39.52 381.089 41.2C378.369 42.88 376.209 45.24 374.609 48.28C373.089 51.24 372.329 54.6 372.329 58.36C372.329 62.2 373.089 65.6 374.609 68.56C376.209 71.52 378.369 73.84 381.089 75.52C383.889 77.2 387.009 78.04 390.449 78.04ZM463.154 92.44C456.754 92.44 450.914 90.96 445.634 88C440.434 85.04 436.274 81 433.154 75.88C430.114 70.76 428.594 64.92 428.594 58.36C428.594 51.8 430.114 45.96 433.154 40.84C436.274 35.72 440.434 31.68 445.634 28.72C450.834 25.76 456.674 24.28 463.154 24.28C469.554 24.28 475.354 25.76 480.554 28.72C485.754 31.68 489.874 35.72 492.914 40.84C496.034 45.88 497.594 51.72 497.594 58.36C497.594 64.92 496.034 70.76 492.914 75.88C489.794 81 485.634 85.04 480.434 88C475.234 90.96 469.474 92.44 463.154 92.44ZM463.154 78.04C466.674 78.04 469.754 77.2 472.394 75.52C475.114 73.84 477.234 71.52 478.754 68.56C480.354 65.52 481.154 62.12 481.154 58.36C481.154 54.52 480.354 51.16 478.754 48.28C477.234 45.32 475.114 43 472.394 41.32C469.754 39.56 466.674 38.68 463.154 38.68C459.554 38.68 456.394 39.56 453.674 41.32C450.954 43 448.794 45.32 447.194 48.28C445.674 51.16 444.914 54.52 444.914 58.36C444.914 62.12 445.674 65.52 447.194 68.56C448.794 71.52 450.954 73.84 453.674 75.52C456.394 77.2 459.554 78.04 463.154 78.04ZM495.292 91L518.092 58.24L495.172 25.72H513.652L531.532 52.12H523.252L541.132 25.72H559.492L536.692 58.24L559.372 91H541.012L523.372 64.72H531.412L513.772 91H495.292Z" fill="black"/>
</svg>
